<?xml version="1.0" standalone="no"?>
<!DOCTYPE svg PUBLIC "-//W3C//DTD SVG 20010904//EN"
 "http://www.w3.org/TR/2001/REC-SVG-20010904/DTD/svg10.dtd">
<svg version="1.0" xmlns="http://www.w3.org/2000/svg"
 width="7600.000000pt" height="7600.000000pt" viewBox="0 0 7600.000000 7600.000000"
 preserveAspectRatio="xMidYMid meet">
<metadata>
Created by potrace 1.11, written by Peter Selinger 2001-2013
</metadata>
<g transform="translate(0.000000,7600.000000) scale(0.100000,-0.100000)"
fill="#000000" stroke="none">
<path d="M0 38000 l0 -38000 38000 0 38000 0 0 38000 0 38000 -38000 0 -38000
0 0 -38000z m72000 0 l0 -34000 -34000 0 -34000 0 0 34000 0 34000 34000 0
34000 0 0 -34000z"/>
<path d="M37887 62243 c-2 -4 -1146 -1883 -2541 -4176 -1395 -2292 -2536
-4173 -2536 -4179 0 -10 5262 -8220 5285 -8246 10 -11 530 838 2554 4164 1398
2297 2543 4179 2544 4183 2 7 -5267 8226 -5288 8249 -7 8 -15 10 -18 5z"/>
<path d="M18847 30349 c-9 -13 -1155 -1895 -2546 -4183 l-2531 -4159 392 -612
c216 -337 1408 -2194 2648 -4128 1240 -1934 2257 -3517 2260 -3517 9 0 5084
8345 5084 8361 0 12 -5255 8218 -5285 8253 -4 4 -14 -2 -22 -15z"/>
<path d="M54382 26190 c-1399 -2299 -2542 -4184 -2540 -4188 1 -5 1193 -1864
2647 -4131 2093 -3262 2647 -4119 2657 -4109 6 7 1153 1889 2548 4181 l2536
4169 -2647 4128 c-1457 2271 -2650 4129 -2653 4129 -3 1 -1150 -1880 -2548
-4179z"/>
</g>
</svg>
