<?xml version="1.0" standalone="no"?>
<!DOCTYPE svg PUBLIC "-//W3C//DTD SVG 20010904//EN"
 "http://www.w3.org/TR/2001/REC-SVG-20010904/DTD/svg10.dtd">
<svg version="1.0" xmlns="http://www.w3.org/2000/svg"
 width="7600.000000pt" height="7600.000000pt" viewBox="0 0 7600.000000 7600.000000"
 preserveAspectRatio="xMidYMid meet">
<metadata>
Created by potrace 1.11, written by Peter Selinger 2001-2013
</metadata>
<g transform="translate(0.000000,7600.000000) scale(0.100000,-0.100000)"
fill="#000000" stroke="none">
<path d="M4000 38000 l0 -34000 34000 0 34000 0 0 34000 0 34000 -34000 0
-34000 0 0 -34000z m36516 20160 c1434 -2236 2622 -4088 2640 -4116 l33 -51
-2540 -4174 c-1397 -2295 -2541 -4174 -2543 -4176 -6 -6 -5291 8240 -5288
8251 10 32 5077 8345 5083 8339 4 -5 1181 -1837 2615 -4073z m-19007 -31923
c1453 -2265 2641 -4124 2639 -4131 -2 -7 -1144 -1887 -2538 -4178 -1926 -3165
-2538 -4164 -2547 -4155 -9 10 -5168 8049 -5255 8189 l-29 47 2509 4123 c2859
4697 2574 4230 2577 4226 1 -2 1191 -1856 2644 -4121z m38037 48 c1428 -2227
2615 -4078 2637 -4112 l39 -62 -2531 -4158 c-1391 -2287 -2536 -4166 -2543
-4175 -11 -16 -328 473 -2657 4103 -2606 4063 -2643 4122 -2630 4150 8 15
1150 1895 2539 4177 1895 3115 2528 4147 2536 4138 7 -6 1181 -1833 2610
-4061z"/>
</g>
</svg>
